<svg width="45" height="64" viewBox="0 0 45 64" fill="none" xmlns="http://www.w3.org/2000/svg">
<path d="M44.9561 22.6509C44.9561 20.9203 43.5294 19.5174 41.7694 19.5174H34.334V3.84985C34.334 2.11924 32.9073 0.716347 31.1474 0.716347H14.1521C12.3922 0.716347 10.9655 2.11924 10.9655 3.84985V19.5174H3.53009C1.77015 19.5174 0.343475 20.9203 0.343475 22.6509C0.343475 24.3815 1.77015 25.7844 3.53009 25.7844V32.2436C2.26142 32.6846 1.41126 33.8618 1.40568 35.1849V39.3629C1.40568 41.0935 2.83235 42.4964 4.59229 42.4964V62.3419C4.59229 62.9187 5.06789 63.3864 5.6545 63.3864H9.90331C10.4899 63.3864 10.9655 62.9187 10.9655 62.3419V46.6744H34.334V62.3419C34.334 62.9187 34.8096 63.3864 35.3962 63.3864H39.645C40.2316 63.3864 40.7072 62.9187 40.7072 62.3419V42.4964C42.4672 42.4964 43.8938 41.0935 43.8938 39.3629V35.1849C43.8883 33.8618 43.0381 32.6846 41.7694 32.2436V25.7844C43.5294 25.7844 44.9561 24.3815 44.9561 22.6509ZM34.334 25.7844H36.4584V32.0514H34.334V25.7844ZM13.0899 3.84985C13.0899 3.27302 13.5655 2.80535 14.1521 2.80535H31.1474C31.734 2.80535 32.2096 3.27302 32.2096 3.84985V32.0514H13.0899V3.84985ZM2.46788 22.6509C2.46788 22.074 2.94349 21.6064 3.53009 21.6064H10.9655V23.6954H3.53009C2.94349 23.6954 2.46788 23.2277 2.46788 22.6509ZM10.9655 25.7844V32.0514H8.84111V25.7844H10.9655ZM6.7167 25.7844V32.0514H5.6545V25.7844H6.7167ZM8.84111 61.2974H6.7167V46.6744H8.84111V61.2974ZM38.5828 61.2974H36.4584V46.6744H38.5828V61.2974ZM38.5828 44.5854H6.7167V42.4964H38.5828V44.5854ZM41.7694 39.3629C41.7694 39.9397 41.2938 40.4074 40.7072 40.4074H4.59229C4.00569 40.4074 3.53009 39.9397 3.53009 39.3629V35.1849C3.53009 34.608 4.00569 34.1404 4.59229 34.1404H40.7072C41.2938 34.1404 41.7694 34.608 41.7694 35.1849V39.3629ZM38.5828 32.0514V25.7844H39.645V32.0514H38.5828ZM34.334 23.6954V21.6064H41.7694C42.356 21.6064 42.8316 22.074 42.8316 22.6509C42.8316 23.2277 42.356 23.6954 41.7694 23.6954H34.334Z" fill="#1451A1"/>
</svg>
