<svg width="64" height="64" viewBox="0 0 64 64" fill="none" xmlns="http://www.w3.org/2000/svg">
<path d="M61.3458 3.01439C60.5027 2.17103 59.4845 1.52321 58.3633 1.11677C57.2422 0.710319 56.0454 0.555168 54.8576 0.662286C53.6699 0.769404 52.5202 1.13618 51.4898 1.73666C50.4595 2.33714 49.5737 3.15667 48.895 4.13728L44.0375 11.1535C41.5383 14.762 38.7198 18.1385 35.6161 21.2425L32.8517 24.0078C32.5563 24.3032 32.2056 24.5376 31.8197 24.6975C31.4337 24.8574 31.02 24.9397 30.6022 24.9397C30.1844 24.9397 29.7707 24.8574 29.3847 24.6975C28.9987 24.5376 28.648 24.3032 28.3526 24.0078L27.6029 23.2581C26.6074 22.2659 25.2591 21.7088 23.8535 21.7088C22.4479 21.7088 21.0996 22.2659 20.1041 23.2581L0.613522 42.7522L21.6087 63.7467L41.1003 44.2515C42.0946 43.2573 42.6531 41.9088 42.6531 40.5028C42.6531 39.0967 42.0946 37.7482 41.1003 36.754L40.3506 36.0043C39.7552 35.4071 39.4209 34.5982 39.4209 33.7548C39.4209 32.9115 39.7552 32.1026 40.3506 31.5054L43.1171 28.7411C46.2212 25.6383 49.5975 22.8203 53.2054 20.321L60.2229 15.4647C61.2035 14.7863 62.023 13.9007 62.6235 12.8706C63.224 11.8405 63.5908 10.691 63.6979 9.50344C63.8051 8.31589 63.6499 7.11931 63.2435 5.99836C62.837 4.8774 62.1892 3.85944 61.3458 3.01651V3.01439ZM21.6066 60.747L18.6079 57.7474L27.4757 48.8788L25.9774 47.3806L17.1085 56.2491L15.6081 54.7498L22.3563 48.0019L20.8569 46.5026L14.1088 53.2495L3.61117 42.7522L14.8574 31.5054L32.8539 49.5012L21.6066 60.747ZM61.5823 9.31061C61.5039 10.189 61.233 11.0394 60.789 11.8013C60.345 12.5633 59.7386 13.2182 59.013 13.7194L51.9955 18.5768C48.2824 21.1481 44.8081 24.0481 41.6146 27.2418L38.8481 30.0061C37.8554 31.0011 37.2979 32.3493 37.2979 33.7548C37.2979 35.1604 37.8554 36.5086 38.8481 37.5036L39.5978 38.2533C39.8932 38.5487 40.1276 38.8994 40.2875 39.2853C40.4474 39.6713 40.5297 40.085 40.5297 40.5028C40.5297 40.9205 40.4474 41.3342 40.2875 41.7202C40.1276 42.1062 39.8932 42.4569 39.5978 42.7522L34.35 48.0009L16.3578 30.0061L21.6055 24.7574C22.203 24.162 23.0121 23.8277 23.8556 23.8277C24.6991 23.8277 25.5083 24.162 26.1057 24.7574L26.8554 25.5071C27.8505 26.4998 29.1987 27.0572 30.6043 27.0572C32.0099 27.0572 33.3581 26.4998 34.3532 25.5071L37.1176 22.7418C40.3111 19.5481 43.2112 16.0739 45.7829 12.3612L50.6404 5.34393C51.3971 4.25041 52.4946 3.43822 53.7615 3.03417C55.0285 2.63012 56.3936 2.65696 57.6437 3.1105C58.8938 3.56404 59.9585 4.41875 60.6716 5.54117C61.3847 6.66359 61.706 7.99055 61.5855 9.31485L61.5823 9.31061Z" fill="#1451A1"/>
<path d="M56.097 11.4429C55.361 11.4428 54.6478 11.1876 54.079 10.7206C53.5101 10.2536 53.1208 9.60384 52.9773 8.882C52.8339 8.16015 52.9452 7.41089 53.2922 6.7619C53.6393 6.1129 54.2007 5.60433 54.8807 5.32284C55.5607 5.04135 56.3173 5.00436 57.0216 5.21817C57.7258 5.43198 58.3341 5.88337 58.7429 6.49541C59.1516 7.10745 59.3354 7.84228 59.2631 8.57467C59.1907 9.30707 58.8666 9.99172 58.3461 10.512C58.0508 10.8075 57.7002 11.0418 57.3143 11.2015C56.9284 11.3613 56.5147 11.4433 56.097 11.4429ZM56.097 7.20162C55.9225 7.20141 55.7507 7.24427 55.5967 7.32639C55.4427 7.40852 55.3114 7.52737 55.2144 7.67241C55.1174 7.81744 55.0576 7.98418 55.0405 8.15784C55.0234 8.33149 55.0494 8.50669 55.1162 8.66789C55.183 8.82909 55.2885 8.97131 55.4235 9.08194C55.5584 9.19257 55.7186 9.26819 55.8898 9.30208C56.061 9.33597 56.2379 9.3271 56.4048 9.27624C56.5717 9.22538 56.7235 9.13412 56.8467 9.01054C56.9946 8.8622 57.0952 8.67338 57.1359 8.4679C57.1766 8.26243 57.1555 8.04951 57.0753 7.85601C56.9951 7.6625 56.8594 7.49708 56.6853 7.38062C56.5112 7.26416 56.3065 7.20188 56.097 7.20162Z" fill="#1451A1"/>
</svg>
