<svg width="22" height="21" viewBox="0 0 22 21" fill="none" xmlns="http://www.w3.org/2000/svg">
<path d="M20.0391 14.5955C18.651 14.5955 17.3082 14.3698 16.0556 13.9635C15.6606 13.8281 15.2205 13.9297 14.9158 14.2344L13.1441 16.4575C9.95052 14.934 6.96007 12.0564 5.36892 8.75L7.56944 6.87674C7.87413 6.56076 7.96441 6.12066 7.84028 5.72569C7.42274 4.47309 7.20833 3.13021 7.20833 1.74219C7.20833 1.13281 6.70052 0.625 6.09115 0.625H2.18663C1.57726 0.625 0.84375 0.895833 0.84375 1.74219C0.84375 12.2257 9.56684 20.9375 20.0391 20.9375C20.8403 20.9375 21.1562 20.2266 21.1562 19.6059V15.7127C21.1562 15.1033 20.6484 14.5955 20.0391 14.5955Z" fill="#1451A1"/>
</svg>
