<svg width="113" height="67" viewBox="0 0 113 67" fill="none" xmlns="http://www.w3.org/2000/svg">
<path d="M109.232 30.9927L96.5411 26.7625L90.6097 10.4513C89.8693 8.41512 87.9161 7.04703 85.7494 7.04703H70.4866V3.41C70.4866 1.52962 68.9569 0 67.0766 0H3.65414C1.77376 0 0.244141 1.52984 0.244141 3.41022V50.9771C0.244141 52.8575 1.77376 54.3871 3.65414 54.3871H14.5096C14.3989 54.9959 14.338 55.622 14.338 56.2622C14.338 62.0282 19.029 66.7192 24.795 66.7192C30.561 66.7192 35.2521 62.0282 35.2521 56.2622C35.2521 55.6218 35.1912 54.9959 35.0804 54.3871H84.9793C84.8685 54.9959 84.8077 55.622 84.8077 56.2622C84.8077 62.0282 89.4987 66.7192 95.2647 66.7192C101.031 66.7192 105.722 62.0282 105.722 56.2622C105.722 55.4477 105.625 54.6557 105.448 53.8944L108.936 52.1505C111.3 50.9683 112.768 48.5919 112.768 45.9487V35.8991C112.768 33.6697 111.347 31.6979 109.232 30.9927ZM3.54074 3.41022C3.54074 3.34759 3.59151 3.2966 3.65414 3.2966H67.0766C67.1392 3.2966 67.19 3.34737 67.19 3.41V38.7581H3.54074V3.41022ZM24.7948 63.4226C20.8466 63.4226 17.6344 60.2104 17.6344 56.2622C17.6344 52.314 20.8466 49.1018 24.7948 49.1018C28.743 49.1018 31.9552 52.314 31.9552 56.2622C31.9555 60.2104 28.7432 63.4226 24.7948 63.4226ZM67.19 51.0903H33.8778C32.075 47.9367 28.6802 45.8052 24.7948 45.8052C20.9094 45.8052 17.5148 47.9367 15.712 51.0903H3.65414C3.59151 51.0903 3.54074 51.0395 3.54074 50.9769V42.0547H67.19V51.0903ZM89.6255 17.3907L92.9111 26.4262H89.3719L86.0863 17.3907H89.6255ZM70.4866 10.3436H85.7494C86.5351 10.3436 87.2432 10.8397 87.5117 11.5779L88.4267 14.0938H70.4866V10.3436ZM70.4866 17.3907H82.5785L85.8641 26.4262H70.4866V17.3907ZM95.2643 63.4226C91.316 63.4226 88.1038 60.2104 88.1038 56.2622C88.1038 52.314 91.316 49.1018 95.2643 49.1018C99.2125 49.1018 102.425 52.314 102.425 56.2622C102.425 60.2104 99.2125 63.4226 95.2643 63.4226ZM109.472 38.7579H107.596C106.686 38.7579 105.948 39.4959 105.948 40.4062C105.948 41.3165 106.686 42.0545 107.596 42.0545H109.472V45.9485C109.472 47.3352 108.701 48.5816 107.461 49.2018L104.198 50.8331C102.361 47.8207 99.0437 45.8052 95.2643 45.8052C91.3789 45.8052 87.9843 47.9367 86.1815 51.0903H70.4866V42.0547H100.55C101.46 42.0547 102.198 41.3167 102.198 40.4064C102.198 39.4961 101.46 38.7581 100.55 38.7581H70.4866V29.7226H94.9968L108.189 34.12C108.956 34.3756 109.472 35.0905 109.472 35.8989V38.7579Z" fill="#1451A1"/>
<path d="M55.5616 19.596L43.2294 12.5492C42.4393 12.0976 41.4323 12.3723 40.9805 13.1626C40.5288 13.9531 40.8033 14.9599 41.5939 15.4116L48.5369 19.3791H15.9856C15.0753 19.3791 14.3373 20.1171 14.3373 21.0274C14.3373 21.9377 15.0753 22.6755 15.9856 22.6755H48.5369L41.5939 26.6431C40.8036 27.0947 40.5288 28.1015 40.9805 28.892C41.2846 29.4243 41.8409 29.7228 42.4132 29.7228C42.6905 29.7228 42.9716 29.6526 43.2294 29.5052L55.5616 22.4584C56.0749 22.165 56.3921 21.6188 56.3921 21.0272C56.3921 20.4356 56.0752 19.8897 55.5616 19.596Z" fill="#1451A1"/>
</svg>
