<svg width="56" height="56" viewBox="0 0 56 56" fill="none" xmlns="http://www.w3.org/2000/svg">
<path d="M54.6645 11.293H29.4343C28.2239 11.29 27.0626 11.7713 26.209 12.6296L21.8187 17.0191V7.64342H39.154C39.6578 7.64342 40.0663 7.2349 40.0663 6.73104V1.25673C40.0663 0.752865 39.6578 0.344345 39.154 0.344345H6.30811C5.80425 0.344345 5.39573 0.752865 5.39573 1.25673V45.9636H3.57096V49.6131H0.833801V55.0874H26.3806V49.6131H23.6434V45.9636H21.8187V41.3716C21.8206 40.646 22.1088 39.9506 22.6206 39.4364L33.5392 28.5179C34.0534 28.006 34.7487 27.7178 35.4743 27.7159H40.9787V30.453C40.9787 30.9569 41.3873 31.3654 41.8911 31.3654H52.8397C53.3436 31.3654 53.7521 30.9569 53.7521 30.453V27.7159H54.6645C55.1684 27.7159 55.5769 27.3074 55.5769 26.8035V12.2053C55.5769 11.7015 55.1684 11.293 54.6645 11.293ZM7.2205 2.16911H38.2416V5.81865H7.2205V2.16911ZM5.39573 47.7884H21.8187V49.6131H5.39573V47.7884ZM24.5558 51.4379V53.2627H2.65857V51.4379H24.5558ZM51.9274 29.5407H42.8035V27.7159H51.9274V29.5407ZM53.7521 25.8911H35.4743C34.2639 25.8882 33.1026 26.3694 32.249 27.2278L21.3305 38.1463C20.4722 38.9998 19.9909 40.1612 19.9939 41.3716V45.9636H7.2205V7.64342H19.9939V19.2216C19.994 19.7255 20.4025 20.1339 20.9065 20.1337C21.1484 20.1337 21.3803 20.0376 21.5513 19.8666L27.4992 13.9197C28.0134 13.4079 28.7088 13.1197 29.4343 13.1177H53.7521V25.8911Z" fill="#1451A1"/>
<path d="M48.1163 34.4967L47.3654 33.4092L46.6145 34.4967C45.9439 35.4666 40.0663 44.0832 40.0663 47.7884C40.0663 51.8195 43.3343 55.0874 47.3654 55.0874C51.3966 55.0874 54.6645 51.8195 54.6645 47.7884C54.6645 44.0832 48.7869 35.4666 48.1163 34.4967ZM47.3654 53.2627C44.3433 53.2597 41.8941 50.8105 41.8911 47.7884C41.8911 45.4563 45.3472 39.7174 47.3654 36.65C49.3836 39.7165 52.8397 45.4545 52.8397 47.7884C52.8368 50.8105 50.3876 53.2597 47.3654 53.2627Z" fill="#1451A1"/>
</svg>
