<svg width="46" height="65" viewBox="0 0 46 65" fill="none" xmlns="http://www.w3.org/2000/svg">
<path d="M27.1088 17.1078V11.3602C27.1088 10.7724 26.6333 10.2958 26.0469 10.2958H23.9229V1.78073C23.9229 1.19292 23.4474 0.716347 22.861 0.716347C22.2745 0.716347 21.799 1.19292 21.799 1.78073V10.2958H19.6751C19.0886 10.2958 18.6131 10.7724 18.6131 11.3602V17.1078C8.16293 19.191 0.617243 28.3553 0.559631 39.0341C0.559631 39.6219 1.03513 40.0985 1.6216 40.0985H11.2335C11.8097 46.5353 17.4833 51.2851 23.9056 50.7076C29.5292 50.2017 33.9859 45.7349 34.4906 40.0985H44.1003C44.6868 40.0985 45.1623 39.6219 45.1623 39.0341C45.1043 28.3554 37.5588 19.1912 27.1088 17.1078ZM20.737 12.4246H24.9849V16.7885C24.9223 16.7885 24.8628 16.7885 24.7991 16.78C24.1619 16.7257 23.5396 16.6917 22.9141 16.6895L22.861 16.6821H22.793C22.176 16.6821 21.5548 16.7172 20.9282 16.7715C20.8634 16.7715 20.8018 16.7715 20.737 16.78V12.4246ZM22.861 48.6135C17.9957 48.6076 13.9091 44.944 13.3627 40.0985H32.3592C31.8128 44.944 27.7262 48.6076 22.861 48.6135ZM2.71118 37.9697C3.25916 28.408 10.3852 20.5234 19.8248 19.0344C21.3276 18.8139 22.8498 18.7579 24.3647 18.8673C24.8692 18.9045 25.3778 18.9599 25.8971 19.0344C35.3363 20.5242 42.462 28.4084 43.0108 37.9697H2.71118Z" fill="#1451A1"/>
<path d="M22.861 53.9355C22.2745 53.9355 21.799 54.412 21.799 54.9998V63.5149C21.799 64.1027 22.2745 64.5793 22.861 64.5793C23.4474 64.5793 23.9229 64.1027 23.9229 63.5149V54.9998C23.9229 54.412 23.4474 53.9355 22.861 53.9355Z" fill="#1451A1"/>
<path d="M15.4272 51.9387C14.9193 51.6448 14.2698 51.8192 13.9765 52.3282L9.72867 59.7023C9.43211 60.2095 9.60176 60.8615 10.1078 61.1587C10.6138 61.456 11.2644 61.2859 11.561 60.7788C11.5634 60.7748 11.5656 60.7706 11.568 60.7665L15.8159 53.3925C16.1091 52.8836 15.9351 52.2326 15.4272 51.9387Z" fill="#1451A1"/>
<path d="M9.98566 46.4848C9.69243 45.9757 9.0429 45.8013 8.53502 46.0952L1.17664 50.3527C0.666758 50.6432 0.488347 51.293 0.778132 51.804C1.06792 52.3151 1.71625 52.4939 2.22613 52.2034C2.23024 52.201 2.23436 52.1987 2.23847 52.1963L9.59685 47.9387C10.1049 47.6448 10.2789 46.9938 9.98566 46.4848Z" fill="#1451A1"/>
<path d="M44.5453 50.3527L37.1869 46.0952C36.6771 45.8048 36.0287 45.9836 35.7389 46.4946C35.4518 47.0009 35.6238 47.6443 36.125 47.9387L43.4833 52.1963C43.9932 52.4867 44.6415 52.3079 44.9313 51.7968C45.2185 51.2907 45.0464 50.6473 44.5453 50.3527Z" fill="#1451A1"/>
<path d="M36.0004 59.7147C35.9981 59.7105 35.9957 59.7064 35.9933 59.7023L31.7454 52.3282C31.4556 51.8172 30.8073 51.6384 30.2974 51.9288C29.7875 52.2193 29.6091 52.8691 29.8989 53.3801C29.9013 53.3842 29.9037 53.3884 29.9061 53.3925L34.1539 60.7665C34.4437 61.2776 35.0921 61.4564 35.6019 61.1659C36.1118 60.8755 36.2902 60.2257 36.0004 59.7147Z" fill="#1451A1"/>
</svg>
