<svg width="77" height="81" viewBox="0 0 77 81" fill="none" xmlns="http://www.w3.org/2000/svg">
<path d="M37.2001 76.4278V37.7405L34.3469 36.3622L34.3468 36.3621C33.5935 35.9981 33.2778 35.0921 33.6414 34.3385C34.005 33.585 34.9104 33.2681 35.6643 33.6326C35.6643 33.6326 35.6643 33.6326 35.6644 33.6326L38.7149 35.1064L46.7078 31.2448C47.4617 30.8805 48.3671 31.1973 48.7307 31.9507L48.7307 31.9508C49.0943 32.7045 48.7787 33.6104 48.0253 33.9744L47.8694 33.6517L48.0253 33.9744L40.2296 37.7405V76.4278L73.0437 60.5757V21.8882L63.0954 26.6942V40.4325C63.0954 41.014 62.7629 41.5444 62.2393 41.7973L62.2393 41.7973M37.2001 76.4278L62.2393 41.7973M37.2001 76.4278L4.38601 60.5754V21.8881L29.405 33.9748C29.6168 34.0773 29.8416 34.126 30.0629 34.126C30.6252 34.126 31.1665 33.8108 31.4278 33.269C31.7914 32.5154 31.4758 31.6093 30.7224 31.2453L30.7224 31.2453L6.35495 19.4733L17.0189 14.3215L51.414 30.9379V44.6122C51.414 45.1337 51.6819 45.6184 52.1233 45.8959L52.1234 45.8959C52.3687 46.05 52.6485 46.1278 52.9289 46.1278C53.1535 46.1278 53.3788 46.0779 53.5874 45.977C53.5875 45.977 53.5875 45.977 53.5875 45.977M37.2001 76.4278L53.5875 45.977M62.2393 41.7973L53.5875 45.977M62.2393 41.7973L53.5875 45.977M75.2172 18.1085L75.2171 18.1085L39.3735 0.792349L39.3734 0.79229C38.9572 0.591433 38.4725 0.591401 38.0564 0.792319L38.0563 0.792349L2.21259 18.1084C1.68896 18.3613 1.35648 18.8918 1.35648 19.4733V61.5267C1.35648 62.1081 1.68896 62.6386 2.21259 62.8915L38.0562 80.2076L38.212 79.8849L38.0562 80.2076C38.2642 80.308 38.4896 80.3584 38.7148 80.3584C38.9402 80.3584 39.1654 80.308 39.3734 80.2077L39.3735 80.2076L75.2171 62.8915C75.7407 62.6386 76.0732 62.1081 76.0732 61.5267V19.4734C76.0732 18.8916 75.7405 18.3615 75.2172 18.1085ZM13.7269 55.9897L13.7268 55.9896L8.46679 53.4485C8.46675 53.4485 8.46672 53.4485 8.46669 53.4485C7.71268 53.084 6.80744 53.4009 6.44387 54.1544C6.08026 54.908 6.39591 55.8141 7.14929 56.1781L7.3052 55.8554L7.14931 56.1781L12.4093 58.7191C12.6211 58.8216 12.8459 58.8703 13.0672 58.8703C13.6295 58.8703 14.1708 58.5551 14.4321 58.0132C14.7959 57.2595 14.4801 56.3538 13.7269 55.9897ZM8.47408 47.9598L8.3182 48.2825L8.47407 47.9598C7.72038 47.5957 6.81489 47.912 6.45124 48.6659L6.45122 48.6659C6.08783 49.4195 6.40346 50.3255 7.15683 50.6895L7.31274 50.3669L7.15685 50.6895L17.2507 55.5659L17.2508 55.566C17.4623 55.6681 17.687 55.717 17.9085 55.717C18.4708 55.717 19.0121 55.4018 19.2734 54.86L18.9506 54.7043L19.2734 54.86C19.6369 54.1062 19.3215 53.2001 18.568 52.8362C18.5679 52.8362 18.5679 52.8362 18.5679 52.8362L8.47408 47.9598ZM29.949 8.07504L38.7148 3.84027L71.0747 19.4733L62.3065 23.7092C62.2849 23.6971 62.2625 23.6854 62.2393 23.6742C62.2393 23.6742 62.2393 23.6742 62.2393 23.6742L29.949 8.07504ZM20.5632 12.668L26.5139 9.78162L58.8252 25.3912L52.8624 28.2718L20.5632 12.668ZM60.0659 39.481L54.4435 42.1972V30.8738L60.0659 28.1576V39.481Z" fill="#1451A1" stroke="#1451A1" stroke-width="0.716722"/>
</svg>
