<svg width="89" height="88" viewBox="0 0 89 88" fill="none" xmlns="http://www.w3.org/2000/svg">
<path d="M87.6064 19.0317L53.3335 0.211991C52.8185 -0.0706636 52.1941 -0.0706636 51.6792 0.211991L38.761 7.3052C38.4884 7.37704 38.234 7.51401 38.0231 7.71072L17.4069 19.0317C16.857 19.3331 16.5153 19.9105 16.5153 20.5383V43.2997C13.0375 44.3873 9.85039 46.3055 7.20042 48.9561C0.293192 55.8627 -1.46786 66.3967 2.81828 75.1684C3.23454 76.0211 4.26378 76.3749 5.11644 75.958C5.96977 75.5411 6.32292 74.5118 5.90666 73.6591C2.26506 66.2061 3.76158 57.2558 9.63085 51.3865C13.3013 47.716 18.181 45.6945 23.3715 45.6945C28.562 45.6945 33.4416 47.716 37.1121 51.3865C40.7819 55.0563 42.8034 59.936 42.8034 65.1265C42.8034 70.317 40.7819 75.1966 37.1114 78.8671C31.2421 84.7364 22.2919 86.2329 14.8388 82.5913C13.9861 82.1744 12.9569 82.5282 12.5406 83.3809C12.1237 84.2342 12.4769 85.2634 13.3302 85.6797C16.5253 87.2413 19.9534 88 23.3567 88C29.2938 87.9993 35.1516 85.6884 39.5425 81.2975C41.556 79.284 43.1472 76.961 44.2731 74.436L51.6792 78.5025C51.937 78.6442 52.2216 78.7147 52.5063 78.7147C52.791 78.7147 53.0763 78.6442 53.3335 78.5025L87.6064 59.6835C88.1563 59.3814 88.498 58.804 88.498 58.1769V46.2323C88.498 45.2829 87.7286 44.5135 86.7793 44.5135C85.8299 44.5135 85.0605 45.2829 85.0605 46.2323V57.1598L54.2304 74.0888V40.3717L64.4053 34.7844V43.6414C64.4053 44.2497 64.7262 44.8123 65.2492 45.1211C65.5191 45.2803 65.8213 45.3601 66.1241 45.3601C66.4087 45.3601 66.6941 45.2897 66.9525 45.1473L74.2969 41.1049C74.846 40.8028 75.1864 40.226 75.1864 39.5996V28.8641L85.0605 23.4427V32.4829C85.0605 33.4323 85.8299 34.2017 86.7793 34.2017C87.7286 34.2017 88.498 33.4323 88.498 32.4829V20.5383C88.498 19.9112 88.1563 19.3331 87.6064 19.0317ZM52.5063 3.67904L83.2082 20.5383L73.5234 25.8563L42.8215 8.9971L52.5063 3.67904ZM52.5063 37.3968L21.8044 20.5383L31.8444 15.0248L62.5469 31.8834L52.5063 37.3968ZM66.1173 29.9229L35.4155 13.0644L39.2504 10.9582L69.953 27.8168L66.1173 29.9229ZM39.5425 48.9561C35.2228 44.6364 29.4797 42.2577 23.3715 42.2577C22.216 42.2577 21.0746 42.3429 19.9528 42.5101V23.4427L50.7936 40.3778V74.0949L45.4406 71.1555C45.9677 69.2152 46.2402 67.1917 46.2402 65.1265C46.2402 59.0182 43.8615 53.2751 39.5425 48.9561ZM71.7496 38.5838L67.8428 40.7343V32.8972L71.7496 30.7521V38.5838Z" fill="#1451A1"/>
<path d="M86.7793 37.6305C86.3274 37.6305 85.8837 37.8144 85.5641 38.134C85.2445 38.4536 85.0605 38.8967 85.0605 39.3492C85.0605 39.8011 85.2445 40.2442 85.5641 40.5638C85.8837 40.884 86.3274 41.0673 86.7793 41.0673C87.2311 41.0673 87.6749 40.884 87.9945 40.5638C88.3141 40.2442 88.498 39.8011 88.498 39.3492C88.498 38.8967 88.3141 38.4536 87.9945 38.134C87.6749 37.8144 87.2311 37.6305 86.7793 37.6305Z" fill="#1451A1"/>
<path d="M17.5922 66.8452C18.0319 66.8452 18.4723 66.6774 18.8074 66.3424C19.4788 65.671 19.4788 64.5827 18.8074 63.9113L17.617 62.7202H27.7751C30.2391 62.7202 32.2438 64.725 32.2438 67.189C32.2438 69.653 30.2391 71.6577 27.7751 71.6577H21.7561C20.8068 71.6577 20.0373 72.4272 20.0373 73.3765C20.0373 74.3252 20.8068 75.0946 21.7561 75.0946H27.7751C32.1344 75.0946 35.6813 71.5483 35.6813 67.189C35.6813 62.8297 32.1344 59.2834 27.7751 59.2834H17.617L18.8074 58.0924C19.4788 57.421 19.4788 56.3326 18.8074 55.6613C18.1367 54.9905 17.0483 54.9905 16.3769 55.6613L12.2519 59.7863C11.5812 60.4576 11.5812 61.546 12.2519 62.2174L16.3769 66.3417C16.7126 66.6774 17.1524 66.8452 17.5922 66.8452Z" fill="#1451A1"/>
<path d="M8.41698 81.8038C7.92821 81.8038 7.4428 81.5956 7.10374 81.1921L7.10039 81.1881C6.48943 80.4617 6.58342 79.378 7.30986 78.7671C8.0363 78.1554 9.12059 78.2494 9.73155 78.9759C10.3418 79.703 10.2499 80.7886 9.52342 81.3996C9.20049 81.6708 8.80772 81.8038 8.41698 81.8038Z" fill="#1451A1"/>
</svg>
