<svg width="20" height="20" viewBox="0 0 20 20" fill="none" xmlns="http://www.w3.org/2000/svg">
<path d="M14.1862 12.364H13.3393L13.0391 12.0745C14.0897 10.8524 14.7222 9.26579 14.7222 7.5398C14.7222 3.69117 11.6026 0.571533 7.75398 0.571533C3.90535 0.571533 0.785713 3.69117 0.785713 7.5398C0.785713 11.3884 3.90535 14.5081 7.75398 14.5081C9.47997 14.5081 11.0666 13.8756 12.2887 12.825L12.5782 13.1251V13.972L17.9384 19.3215L19.5357 17.7242L14.1862 12.364ZM7.75398 12.364C5.0846 12.364 2.9298 10.2092 2.9298 7.5398C2.9298 4.87042 5.0846 2.71562 7.75398 2.71562C10.4234 2.71562 12.5782 4.87042 12.5782 7.5398C12.5782 10.2092 10.4234 12.364 7.75398 12.364Z" fill="#1451A1"/>
</svg>
