<svg width="56" height="56" viewBox="0 0 56 56" fill="none" xmlns="http://www.w3.org/2000/svg">
<path d="M55.721 39.5939L17.0772 1.16447C16.7092 0.798681 16.1128 0.798681 15.7448 1.16447L1.0871 15.7409C0.719271 16.1068 0.719271 16.7 1.0871 17.0659L34.8199 50.6115L32.8204 52.599C32.4529 52.9654 31.8562 52.9662 31.4878 52.6006C31.4872 52.6 31.4866 52.5994 31.4862 52.599L12.6222 33.8387C12.0935 33.3095 11.3738 33.0129 10.6237 33.0151H8.61667C7.05547 33.0151 5.7899 34.2736 5.7899 35.8261V42.4603C2.5489 42.9279 0.14261 45.6878 0.136368 48.9446C0.136368 49.462 0.558263 49.8816 1.07862 49.8816H3.07149L2.96314 52.6561C2.94252 53.1733 3.34722 53.6091 3.86723 53.6296C3.86805 53.6296 3.86876 53.6297 3.86959 53.6297H3.90539C4.41174 53.6301 4.82786 53.2324 4.84765 52.7292L4.95695 49.8816H8.51585L8.61667 52.7264C8.63493 53.2307 9.05152 53.6301 9.55893 53.6297H9.59285C10.113 53.6114 10.5196 53.1774 10.5012 52.6601C10.5012 52.6598 10.5012 52.6593 10.5012 52.6589L10.4004 49.8816H12.3857C12.9061 49.8816 13.3279 49.462 13.3279 48.9446C13.3217 45.6878 10.9154 42.928 7.67441 42.4603V35.8261C7.67441 35.3087 8.09631 34.8891 8.61667 34.8891H10.6237C10.8734 34.8901 11.1127 34.9887 11.2898 35.1637L30.1538 53.9239C31.2592 55.0194 33.0474 55.0194 34.1527 53.9239L36.1513 51.9356L39.7318 55.4963C40.0998 55.8621 40.6962 55.8621 41.0642 55.4963L55.721 40.9189C56.0888 40.553 56.0888 39.9599 55.721 39.5939ZM11.3492 48.0075H2.1151C2.63287 45.4717 5.11972 43.8335 7.6697 44.3484C9.52371 44.7228 10.9728 46.1638 11.3492 48.0075ZM40.398 53.5079L3.08469 16.4015L16.411 3.15191L53.7243 40.2583L40.398 53.5079Z" fill="#1451A1"/>
<path d="M27.7379 25.9536C27.9879 25.9543 28.2278 25.8554 28.404 25.679L29.0702 25.0166C29.4445 24.6571 29.4549 24.0638 29.0934 23.6916C28.7319 23.3194 28.1354 23.3091 27.7611 23.6685C27.7532 23.676 27.7455 23.6838 27.7379 23.6916L27.0717 24.3541C26.7037 24.7201 26.7039 25.3134 27.0719 25.6793C27.2486 25.8549 27.4881 25.9536 27.7379 25.9536Z" fill="#1451A1"/>
<path d="M24.407 29.2669C24.6569 29.2669 24.8965 29.1681 25.0732 28.9924L25.7393 28.3299C26.1008 27.9577 26.0905 27.3644 25.7161 27.0049C25.351 26.6543 24.7721 26.6543 24.407 27.0049L23.7408 27.6674C23.3729 28.0335 23.373 28.6267 23.7411 28.9926C23.9177 29.1682 24.1572 29.2669 24.407 29.2669Z" fill="#1451A1"/>
<path d="M21.1569 31.7245C21.1676 31.7353 21.1785 31.746 21.1892 31.7566C24.133 34.684 28.9059 34.6839 31.8496 31.7564C34.7934 28.8289 34.7932 24.0825 31.8494 21.1551C28.9057 18.2278 24.133 18.2278 21.1893 21.1551C18.2453 24.0649 18.2309 28.797 21.1569 31.7245ZM26.5195 20.8337C29.6419 20.8355 32.1715 23.3543 32.1695 26.4594C32.1676 29.5644 29.6349 32.08 26.5125 32.078C23.3901 32.0762 20.8605 29.5574 20.8625 26.4523C20.8634 24.9609 21.4602 23.5309 22.5215 22.4772C23.5816 21.4227 25.0202 20.8313 26.5195 20.8337Z" fill="#1451A1"/>
<path d="M16.411 14.6905C16.6609 14.6905 16.9005 14.5916 17.0772 14.4159L17.7443 13.7525C18.1123 13.3864 18.112 12.793 17.7438 12.4271C17.3756 12.0612 16.779 12.0614 16.411 12.4276L15.7448 13.091C15.3769 13.457 15.377 14.0503 15.7451 14.4162C15.9216 14.5918 16.1612 14.6905 16.411 14.6905Z" fill="#1451A1"/>
<path d="M13.7222 17.7514C13.7301 17.7439 13.7377 17.7362 13.7454 17.7283L14.4115 17.0659C14.773 16.6936 14.7627 16.1004 14.3883 15.7409C14.0232 15.3902 13.4443 15.3902 13.0792 15.7409L12.413 16.4034C12.0387 16.7629 12.0283 17.3561 12.3898 17.7283C12.7514 18.1006 13.3479 18.1109 13.7222 17.7514Z" fill="#1451A1"/>
<path d="M9.88212 9.91071C6.9384 12.8382 6.93851 17.5846 9.88236 20.512C12.8262 23.4394 17.5991 23.4393 20.5428 20.5118C23.4864 17.5844 23.4864 12.8382 20.5428 9.91083C17.5968 6.98823 12.8281 6.98823 9.88212 9.91071ZM19.2105 11.2357C21.4136 13.4335 21.4136 16.9895 19.2105 19.1873C17.0024 21.3828 13.4228 21.3824 11.2152 19.1866C9.00759 16.9908 9.00782 13.431 11.2159 11.2357C13.4236 9.04056 17.0027 9.04056 19.2105 11.2357Z" fill="#1451A1"/>
<path d="M39.0638 37.2176C39.3139 37.2179 39.554 37.119 39.7309 36.9431L40.3971 36.2806C40.765 35.9145 40.7648 35.3211 40.3966 34.9552C40.0284 34.5893 39.4317 34.5895 39.0638 34.9556L38.3976 35.6181C38.0297 35.9841 38.0298 36.5774 38.3978 36.9433C38.5744 37.1189 38.814 37.2176 39.0638 37.2176Z" fill="#1451A1"/>
<path d="M35.7329 40.531C35.9828 40.531 36.2224 40.4321 36.3991 40.2564L37.0653 39.5939C37.4334 39.228 37.4337 38.6347 37.0657 38.2685C36.6978 37.9024 36.1011 37.9021 35.7329 38.268L35.0667 38.9315C34.6988 39.2975 34.6989 39.8907 35.067 40.2567C35.2436 40.4322 35.4831 40.531 35.7329 40.531Z" fill="#1451A1"/>
<path d="M32.464 42.9689C32.4747 42.9797 32.4855 42.9903 32.4963 43.001C35.4401 45.9284 40.213 45.9283 43.1567 43.0007C46.1004 40.0732 46.1003 35.3268 43.1565 32.3994C40.2127 29.4721 35.4401 29.4721 32.4964 32.3994C29.5524 35.3093 29.5379 40.0414 32.464 42.9689ZM37.8266 32.078C40.949 32.0799 43.4786 34.5986 43.4766 37.7037C43.4746 40.8088 40.9419 43.3244 37.8195 43.3224C34.6971 43.3205 32.1675 40.8018 32.1695 37.6967C32.1705 36.2053 32.7673 34.7753 33.8286 33.7216C34.8886 32.6671 36.3272 32.0757 37.8266 32.078Z" fill="#1451A1"/>
<path d="M40.3971 49.5321C40.765 49.8979 41.3615 49.8979 41.7294 49.5321L49.7245 41.5814C50.0861 41.2091 50.0757 40.616 49.7014 40.2564C49.3363 39.9056 48.7572 39.9056 48.3921 40.2564L40.3971 48.2071C40.0292 48.573 40.0292 49.1662 40.3971 49.5321Z" fill="#1451A1"/>
</svg>
