<svg width="19" height="19" viewBox="0 0 19 19" fill="none" xmlns="http://www.w3.org/2000/svg">
<path d="M8.49709 1.47145C8.88343 0.812466 9.83609 0.812466 10.2224 1.47145L12.5908 5.51122C12.7318 5.75171 12.9668 5.92242 13.2391 5.9822L17.813 6.98634C18.5591 7.15013 18.8535 8.05616 18.3462 8.62724L15.236 12.1281C15.0509 12.3365 14.9611 12.6127 14.9884 12.8901L15.4468 17.5505C15.5216 18.3107 14.7509 18.8707 14.051 18.5646L9.7604 16.6885C9.50498 16.5768 9.21454 16.5768 8.95913 16.6885L4.66852 18.5646C3.96862 18.8707 3.1979 18.3107 3.27269 17.5505L3.73112 12.8901C3.75841 12.6127 3.66865 12.3365 3.48351 12.1281L0.373338 8.62724C-0.134005 8.05616 0.160382 7.15013 0.906499 6.98634L5.48043 5.9822C5.75271 5.92242 5.98769 5.75171 6.12867 5.51122L8.49709 1.47145Z" fill="#BEBEBE"/>
</svg>
