<svg width="75" height="75" viewBox="0 0 75 75" fill="none" xmlns="http://www.w3.org/2000/svg">
<mask id="path-1-outside-1" maskUnits="userSpaceOnUse" x="0.6875" y="0" width="75" height="75" fill="black">
<rect fill="white" x="0.6875" width="75" height="75"/>
<path d="M70.6709 21.705C70.4194 21.1754 69.7857 20.95 69.2566 21.2017C68.7269 21.4532 68.5016 22.0865 68.7531 22.6161C70.9312 27.2009 72.0355 32.1196 72.0355 37.2354C72.0355 46.3472 68.4873 54.9135 62.0443 61.3565C55.6015 67.7995 47.0351 71.3477 37.9233 71.3477C32.5195 71.3477 27.3517 70.1214 22.5638 67.7028C18.5744 65.6875 14.9702 62.8582 12.0437 59.4582L16.2321 60.8544C16.7882 61.0399 17.3895 60.7392 17.5749 60.183C17.7604 59.6267 17.4597 59.0255 16.9035 58.8401L9.3662 56.3277C9.01715 56.2115 8.63271 56.284 8.35033 56.5198C8.06795 56.7556 7.92768 57.1208 7.97963 57.485L9.23584 66.2784C9.31156 66.808 9.76564 67.19 10.2855 67.19C10.3355 67.19 10.386 67.1864 10.437 67.1792C11.0175 67.0963 11.4207 66.5585 11.3378 65.9782L10.6368 61.0718C13.7082 64.5793 17.4603 67.5034 21.6067 69.5979C26.6941 72.1678 32.1838 73.4709 37.9233 73.4709C47.6021 73.4709 56.7017 69.7017 63.5457 62.8579C70.3895 56.0137 74.1587 46.9143 74.1587 37.2354C74.1587 31.802 72.9853 26.5768 70.6709 21.705Z"/>
<path d="M67.8667 16.9861L66.6105 8.19259C66.5276 7.61212 65.9886 7.20914 65.4095 7.2918C64.829 7.37475 64.4258 7.91248 64.5087 8.49281L65.2089 13.3942C58.315 5.49546 48.4734 1 37.9229 1C28.2441 1 19.1446 4.76919 12.3005 11.613C5.45669 18.4571 1.6875 27.5566 1.6875 37.2354C1.6875 42.6691 2.86105 47.8943 5.1753 52.7659C5.35705 53.1485 5.7378 53.3722 6.13498 53.3722C6.28756 53.3722 6.44269 53.3391 6.58976 53.2692C7.11928 53.0177 7.34462 52.3844 7.09309 51.8547C4.915 47.2703 3.81067 42.3516 3.81067 37.2354C3.81067 28.1236 7.35891 19.5574 13.8019 13.1144C20.2449 6.67141 28.8111 3.12317 37.9229 3.12317C47.9522 3.12317 57.3008 7.43943 63.7996 15.0117L59.6142 13.6166C59.0577 13.4309 58.4567 13.7318 58.2714 14.2881C58.0861 14.8443 58.3865 15.4455 58.9428 15.6309L66.48 18.1433C66.5899 18.1798 66.7031 18.1978 66.8156 18.1978C67.0608 18.1978 67.3022 18.1129 67.496 17.9513C67.7784 17.7154 67.9187 17.3503 67.8667 16.9861Z"/>
<path d="M34.9728 48.6547H24.2941C24.7206 44.9392 27.3608 42.4463 30.1422 39.8201C33.039 37.0848 36.0344 34.2565 36.0344 30.0093C36.0344 26.5263 32.9114 23.6926 29.0727 23.6926C25.234 23.6926 22.1109 26.5263 22.1109 30.0093C22.1109 30.5956 22.5862 31.0709 23.1725 31.0709C23.7588 31.0709 24.2341 30.5956 24.2341 30.0093C24.2341 27.697 26.4046 25.8158 29.0727 25.8158C31.7408 25.8158 33.9112 27.697 33.9112 30.0093C33.9112 33.3413 31.3724 35.7385 28.6846 38.2764C25.6033 41.1857 22.1109 44.4832 22.1109 49.7163C22.1109 50.3026 22.5862 50.7779 23.1725 50.7779H34.9728C35.5591 50.7779 36.0344 50.3026 36.0344 49.7163C36.0344 49.13 35.5591 48.6547 34.9728 48.6547Z"/>
<path d="M52.6735 41.8467H51.4659V24.7542C51.4659 24.1679 50.9907 23.6926 50.4043 23.6926C49.8179 23.6926 49.3427 24.1679 49.3427 24.7542V41.8468H40.3371L43.5051 24.9499C43.6133 24.3737 43.2336 23.8189 42.6574 23.7109C42.0817 23.6034 41.5266 23.9823 41.4185 24.5586L38.0146 42.7128C37.9564 43.0232 38.0394 43.3434 38.2411 43.5864C38.4428 43.8294 38.7421 43.97 39.0579 43.97H49.3427V49.7163C49.3427 50.3024 49.8179 50.7777 50.4043 50.7777C50.9907 50.7777 51.4659 50.3024 51.4659 49.7161V43.9699H52.6735C53.26 43.9699 53.7351 43.4946 53.7351 42.9083C53.7351 42.322 53.26 41.8467 52.6735 41.8467Z"/>
<path d="M37.9231 6.67324C37.3368 6.67324 36.8615 7.14854 36.8615 7.73482V12.2733C36.8615 12.8596 37.3368 13.3349 37.9231 13.3349C38.5095 13.3349 38.9847 12.8596 38.9847 12.2733V7.73482C38.9847 7.14854 38.5095 6.67324 37.9231 6.67324Z"/>
<path d="M37.9231 61.1361C37.3368 61.1361 36.8615 61.6114 36.8615 62.1977V66.7362C36.8615 67.3224 37.3368 67.7977 37.9231 67.7977C38.5095 67.7977 38.9847 67.3224 38.9847 66.7362V62.1977C38.9847 61.6114 38.5095 61.1361 37.9231 61.1361Z"/>
<path d="M67.4233 36.174H62.8848C62.2984 36.174 61.8232 36.6493 61.8232 37.2356C61.8232 37.8219 62.2984 38.2972 62.8848 38.2972H67.4233C68.0097 38.2972 68.4849 37.8219 68.4849 37.2356C68.4849 36.6493 68.0097 36.174 67.4233 36.174Z"/>
<path d="M12.9608 36.174H8.42232C7.83604 36.174 7.36074 36.6493 7.36074 37.2356C7.36074 37.8219 7.83604 38.2972 8.42232 38.2972H12.9608C13.5471 38.2972 14.0224 37.8219 14.0224 37.2356C14.0224 36.6493 13.5471 36.174 12.9608 36.174Z"/>
</mask>
<path d="M70.6709 21.705C70.4194 21.1754 69.7857 20.95 69.2566 21.2017C68.7269 21.4532 68.5016 22.0865 68.7531 22.6161C70.9312 27.2009 72.0355 32.1196 72.0355 37.2354C72.0355 46.3472 68.4873 54.9135 62.0443 61.3565C55.6015 67.7995 47.0351 71.3477 37.9233 71.3477C32.5195 71.3477 27.3517 70.1214 22.5638 67.7028C18.5744 65.6875 14.9702 62.8582 12.0437 59.4582L16.2321 60.8544C16.7882 61.0399 17.3895 60.7392 17.5749 60.183C17.7604 59.6267 17.4597 59.0255 16.9035 58.8401L9.3662 56.3277C9.01715 56.2115 8.63271 56.284 8.35033 56.5198C8.06795 56.7556 7.92768 57.1208 7.97963 57.485L9.23584 66.2784C9.31156 66.808 9.76564 67.19 10.2855 67.19C10.3355 67.19 10.386 67.1864 10.437 67.1792C11.0175 67.0963 11.4207 66.5585 11.3378 65.9782L10.6368 61.0718C13.7082 64.5793 17.4603 67.5034 21.6067 69.5979C26.6941 72.1678 32.1838 73.4709 37.9233 73.4709C47.6021 73.4709 56.7017 69.7017 63.5457 62.8579C70.3895 56.0137 74.1587 46.9143 74.1587 37.2354C74.1587 31.802 72.9853 26.5768 70.6709 21.705Z" fill="#1451A1"/>
<path d="M67.8667 16.9861L66.6105 8.19259C66.5276 7.61212 65.9886 7.20914 65.4095 7.2918C64.829 7.37475 64.4258 7.91248 64.5087 8.49281L65.2089 13.3942C58.315 5.49546 48.4734 1 37.9229 1C28.2441 1 19.1446 4.76919 12.3005 11.613C5.45669 18.4571 1.6875 27.5566 1.6875 37.2354C1.6875 42.6691 2.86105 47.8943 5.1753 52.7659C5.35705 53.1485 5.7378 53.3722 6.13498 53.3722C6.28756 53.3722 6.44269 53.3391 6.58976 53.2692C7.11928 53.0177 7.34462 52.3844 7.09309 51.8547C4.915 47.2703 3.81067 42.3516 3.81067 37.2354C3.81067 28.1236 7.35891 19.5574 13.8019 13.1144C20.2449 6.67141 28.8111 3.12317 37.9229 3.12317C47.9522 3.12317 57.3008 7.43943 63.7996 15.0117L59.6142 13.6166C59.0577 13.4309 58.4567 13.7318 58.2714 14.2881C58.0861 14.8443 58.3865 15.4455 58.9428 15.6309L66.48 18.1433C66.5899 18.1798 66.7031 18.1978 66.8156 18.1978C67.0608 18.1978 67.3022 18.1129 67.496 17.9513C67.7784 17.7154 67.9187 17.3503 67.8667 16.9861Z" fill="#1451A1"/>
<path d="M34.9728 48.6547H24.2941C24.7206 44.9392 27.3608 42.4463 30.1422 39.8201C33.039 37.0848 36.0344 34.2565 36.0344 30.0093C36.0344 26.5263 32.9114 23.6926 29.0727 23.6926C25.234 23.6926 22.1109 26.5263 22.1109 30.0093C22.1109 30.5956 22.5862 31.0709 23.1725 31.0709C23.7588 31.0709 24.2341 30.5956 24.2341 30.0093C24.2341 27.697 26.4046 25.8158 29.0727 25.8158C31.7408 25.8158 33.9112 27.697 33.9112 30.0093C33.9112 33.3413 31.3724 35.7385 28.6846 38.2764C25.6033 41.1857 22.1109 44.4832 22.1109 49.7163C22.1109 50.3026 22.5862 50.7779 23.1725 50.7779H34.9728C35.5591 50.7779 36.0344 50.3026 36.0344 49.7163C36.0344 49.13 35.5591 48.6547 34.9728 48.6547Z" fill="#1451A1"/>
<path d="M52.6735 41.8467H51.4659V24.7542C51.4659 24.1679 50.9907 23.6926 50.4043 23.6926C49.8179 23.6926 49.3427 24.1679 49.3427 24.7542V41.8468H40.3371L43.5051 24.9499C43.6133 24.3737 43.2336 23.8189 42.6574 23.7109C42.0817 23.6034 41.5266 23.9823 41.4185 24.5586L38.0146 42.7128C37.9564 43.0232 38.0394 43.3434 38.2411 43.5864C38.4428 43.8294 38.7421 43.97 39.0579 43.97H49.3427V49.7163C49.3427 50.3024 49.8179 50.7777 50.4043 50.7777C50.9907 50.7777 51.4659 50.3024 51.4659 49.7161V43.9699H52.6735C53.26 43.9699 53.7351 43.4946 53.7351 42.9083C53.7351 42.322 53.26 41.8467 52.6735 41.8467Z" fill="#1451A1"/>
<path d="M37.9231 6.67324C37.3368 6.67324 36.8615 7.14854 36.8615 7.73482V12.2733C36.8615 12.8596 37.3368 13.3349 37.9231 13.3349C38.5095 13.3349 38.9847 12.8596 38.9847 12.2733V7.73482C38.9847 7.14854 38.5095 6.67324 37.9231 6.67324Z" fill="#1451A1"/>
<path d="M37.9231 61.1361C37.3368 61.1361 36.8615 61.6114 36.8615 62.1977V66.7362C36.8615 67.3224 37.3368 67.7977 37.9231 67.7977C38.5095 67.7977 38.9847 67.3224 38.9847 66.7362V62.1977C38.9847 61.6114 38.5095 61.1361 37.9231 61.1361Z" fill="#1451A1"/>
<path d="M67.4233 36.174H62.8848C62.2984 36.174 61.8232 36.6493 61.8232 37.2356C61.8232 37.8219 62.2984 38.2972 62.8848 38.2972H67.4233C68.0097 38.2972 68.4849 37.8219 68.4849 37.2356C68.4849 36.6493 68.0097 36.174 67.4233 36.174Z" fill="#1451A1"/>
<path d="M12.9608 36.174H8.42232C7.83604 36.174 7.36074 36.6493 7.36074 37.2356C7.36074 37.8219 7.83604 38.2972 8.42232 38.2972H12.9608C13.5471 38.2972 14.0224 37.8219 14.0224 37.2356C14.0224 36.6493 13.5471 36.174 12.9608 36.174Z" fill="#1451A1"/>
<path d="M70.6709 21.705C70.4194 21.1754 69.7857 20.95 69.2566 21.2017C68.7269 21.4532 68.5016 22.0865 68.7531 22.6161C70.9312 27.2009 72.0355 32.1196 72.0355 37.2354C72.0355 46.3472 68.4873 54.9135 62.0443 61.3565C55.6015 67.7995 47.0351 71.3477 37.9233 71.3477C32.5195 71.3477 27.3517 70.1214 22.5638 67.7028C18.5744 65.6875 14.9702 62.8582 12.0437 59.4582L16.2321 60.8544C16.7882 61.0399 17.3895 60.7392 17.5749 60.183C17.7604 59.6267 17.4597 59.0255 16.9035 58.8401L9.3662 56.3277C9.01715 56.2115 8.63271 56.284 8.35033 56.5198C8.06795 56.7556 7.92768 57.1208 7.97963 57.485L9.23584 66.2784C9.31156 66.808 9.76564 67.19 10.2855 67.19C10.3355 67.19 10.386 67.1864 10.437 67.1792C11.0175 67.0963 11.4207 66.5585 11.3378 65.9782L10.6368 61.0718C13.7082 64.5793 17.4603 67.5034 21.6067 69.5979C26.6941 72.1678 32.1838 73.4709 37.9233 73.4709C47.6021 73.4709 56.7017 69.7017 63.5457 62.8579C70.3895 56.0137 74.1587 46.9143 74.1587 37.2354C74.1587 31.802 72.9853 26.5768 70.6709 21.705Z" stroke="#1451A1" stroke-width="1.43344" mask="url(#path-1-outside-1)"/>
<path d="M67.8667 16.9861L66.6105 8.19259C66.5276 7.61212 65.9886 7.20914 65.4095 7.2918C64.829 7.37475 64.4258 7.91248 64.5087 8.49281L65.2089 13.3942C58.315 5.49546 48.4734 1 37.9229 1C28.2441 1 19.1446 4.76919 12.3005 11.613C5.45669 18.4571 1.6875 27.5566 1.6875 37.2354C1.6875 42.6691 2.86105 47.8943 5.1753 52.7659C5.35705 53.1485 5.7378 53.3722 6.13498 53.3722C6.28756 53.3722 6.44269 53.3391 6.58976 53.2692C7.11928 53.0177 7.34462 52.3844 7.09309 51.8547C4.915 47.2703 3.81067 42.3516 3.81067 37.2354C3.81067 28.1236 7.35891 19.5574 13.8019 13.1144C20.2449 6.67141 28.8111 3.12317 37.9229 3.12317C47.9522 3.12317 57.3008 7.43943 63.7996 15.0117L59.6142 13.6166C59.0577 13.4309 58.4567 13.7318 58.2714 14.2881C58.0861 14.8443 58.3865 15.4455 58.9428 15.6309L66.48 18.1433C66.5899 18.1798 66.7031 18.1978 66.8156 18.1978C67.0608 18.1978 67.3022 18.1129 67.496 17.9513C67.7784 17.7154 67.9187 17.3503 67.8667 16.9861Z" stroke="#1451A1" stroke-width="1.43344" mask="url(#path-1-outside-1)"/>
<path d="M34.9728 48.6547H24.2941C24.7206 44.9392 27.3608 42.4463 30.1422 39.8201C33.039 37.0848 36.0344 34.2565 36.0344 30.0093C36.0344 26.5263 32.9114 23.6926 29.0727 23.6926C25.234 23.6926 22.1109 26.5263 22.1109 30.0093C22.1109 30.5956 22.5862 31.0709 23.1725 31.0709C23.7588 31.0709 24.2341 30.5956 24.2341 30.0093C24.2341 27.697 26.4046 25.8158 29.0727 25.8158C31.7408 25.8158 33.9112 27.697 33.9112 30.0093C33.9112 33.3413 31.3724 35.7385 28.6846 38.2764C25.6033 41.1857 22.1109 44.4832 22.1109 49.7163C22.1109 50.3026 22.5862 50.7779 23.1725 50.7779H34.9728C35.5591 50.7779 36.0344 50.3026 36.0344 49.7163C36.0344 49.13 35.5591 48.6547 34.9728 48.6547Z" stroke="#1451A1" stroke-width="1.43344" mask="url(#path-1-outside-1)"/>
<path d="M52.6735 41.8467H51.4659V24.7542C51.4659 24.1679 50.9907 23.6926 50.4043 23.6926C49.8179 23.6926 49.3427 24.1679 49.3427 24.7542V41.8468H40.3371L43.5051 24.9499C43.6133 24.3737 43.2336 23.8189 42.6574 23.7109C42.0817 23.6034 41.5266 23.9823 41.4185 24.5586L38.0146 42.7128C37.9564 43.0232 38.0394 43.3434 38.2411 43.5864C38.4428 43.8294 38.7421 43.97 39.0579 43.97H49.3427V49.7163C49.3427 50.3024 49.8179 50.7777 50.4043 50.7777C50.9907 50.7777 51.4659 50.3024 51.4659 49.7161V43.9699H52.6735C53.26 43.9699 53.7351 43.4946 53.7351 42.9083C53.7351 42.322 53.26 41.8467 52.6735 41.8467Z" stroke="#1451A1" stroke-width="1.43344" mask="url(#path-1-outside-1)"/>
<path d="M37.9231 6.67324C37.3368 6.67324 36.8615 7.14854 36.8615 7.73482V12.2733C36.8615 12.8596 37.3368 13.3349 37.9231 13.3349C38.5095 13.3349 38.9847 12.8596 38.9847 12.2733V7.73482C38.9847 7.14854 38.5095 6.67324 37.9231 6.67324Z" stroke="#1451A1" stroke-width="1.43344" mask="url(#path-1-outside-1)"/>
<path d="M37.9231 61.1361C37.3368 61.1361 36.8615 61.6114 36.8615 62.1977V66.7362C36.8615 67.3224 37.3368 67.7977 37.9231 67.7977C38.5095 67.7977 38.9847 67.3224 38.9847 66.7362V62.1977C38.9847 61.6114 38.5095 61.1361 37.9231 61.1361Z" stroke="#1451A1" stroke-width="1.43344" mask="url(#path-1-outside-1)"/>
<path d="M67.4233 36.174H62.8848C62.2984 36.174 61.8232 36.6493 61.8232 37.2356C61.8232 37.8219 62.2984 38.2972 62.8848 38.2972H67.4233C68.0097 38.2972 68.4849 37.8219 68.4849 37.2356C68.4849 36.6493 68.0097 36.174 67.4233 36.174Z" stroke="#1451A1" stroke-width="1.43344" mask="url(#path-1-outside-1)"/>
<path d="M12.9608 36.174H8.42232C7.83604 36.174 7.36074 36.6493 7.36074 37.2356C7.36074 37.8219 7.83604 38.2972 8.42232 38.2972H12.9608C13.5471 38.2972 14.0224 37.8219 14.0224 37.2356C14.0224 36.6493 13.5471 36.174 12.9608 36.174Z" stroke="#1451A1" stroke-width="1.43344" mask="url(#path-1-outside-1)"/>
</svg>
