<svg width="59" height="59" viewBox="0 0 59 59" fill="none" xmlns="http://www.w3.org/2000/svg">
<path d="M42.6816 18.2761C42.1462 18.2761 41.7121 18.7092 41.7121 19.2434V23.1127C41.7121 23.6469 42.1462 24.08 42.6816 24.08C43.2171 24.08 43.6512 23.6469 43.6512 23.1127V19.2434C43.6512 18.7092 43.2172 18.2761 42.6816 18.2761Z" fill="#1451A1"/>
<path d="M45.5903 18.2761C45.0549 18.2761 44.6208 18.7092 44.6208 19.2434V23.1127C44.6208 23.6469 45.0549 24.08 45.5903 24.08C46.1258 24.08 46.5599 23.6469 46.5599 23.1127V19.2434C46.5599 18.7092 46.1259 18.2761 45.5903 18.2761Z" fill="#1451A1"/>
<path d="M48.499 18.2761C47.9636 18.2761 47.5294 18.7092 47.5294 19.2434V23.1127C47.5294 23.6469 47.9636 24.08 48.499 24.08C49.0345 24.08 49.4686 23.6469 49.4686 23.1127V19.2434C49.4686 18.7092 49.0346 18.2761 48.499 18.2761Z" fill="#1451A1"/>
<path d="M39.7729 18.2761C39.2375 18.2761 38.8034 18.7092 38.8034 19.2434V23.1127C38.8034 23.6469 39.2375 24.08 39.7729 24.08C40.3084 24.08 40.7425 23.6469 40.7425 23.1127V19.2434C40.7425 18.7092 40.3085 18.2761 39.7729 18.2761Z" fill="#1451A1"/>
<path d="M36.8642 18.2761C36.3288 18.2761 35.8947 18.7092 35.8947 19.2434V23.1127C35.8947 23.6469 36.3288 24.08 36.8642 24.08C37.3997 24.08 37.8338 23.6469 37.8338 23.1127V19.2434C37.8338 18.7092 37.3998 18.2761 36.8642 18.2761Z" fill="#1451A1"/>
<path d="M8.94141 50.0043C7.80545 48.8711 5.96376 48.8713 4.82792 50.0046C3.6922 51.1378 3.6922 52.975 4.82792 54.1082C5.96546 55.238 7.80424 55.238 8.94178 54.1082C10.0776 52.9749 10.0775 51.1375 8.94141 50.0043ZM7.56936 52.7394C7.19087 53.1167 6.5775 53.1167 6.199 52.7394C5.82015 52.362 5.81978 51.7494 6.19828 51.3714C6.19852 51.3712 6.19876 51.3709 6.199 51.3707C6.57786 50.9932 7.19172 50.9935 7.57021 51.3714C7.94846 51.7494 7.94822 52.3618 7.56936 52.7394Z" fill="#1451A1"/>
<path d="M57.9627 12.7168C56.9998 7.20926 53.1346 2.64792 47.8513 0.784272C47.3462 0.606892 46.7927 0.871693 46.6149 1.37554C46.5785 1.47868 46.5599 1.58714 46.5599 1.69645V14.4069H38.8034V1.69645C38.8033 1.16225 38.369 0.729257 37.8336 0.729377C37.724 0.729377 37.6153 0.747998 37.5119 0.784272C31.3153 2.97184 27.1719 8.81645 27.1686 15.3742C27.1649 17.3048 27.5267 19.2189 28.2351 21.0156C28.2497 21.0542 28.2681 21.0939 28.2826 21.1326L2.08599 47.2674C-0.564553 49.9118 -0.564553 54.1994 2.08599 56.8437C4.73654 59.4881 9.03413 59.4881 11.6847 56.8437L38.3574 30.2272C39.7579 30.637 41.2095 30.8472 42.669 30.8512C43.5662 30.8508 44.4618 30.7744 45.346 30.6229C53.7862 29.1541 59.4348 21.1373 57.9627 12.7168ZM36.8642 3.13967V14.4069H29.1426C29.4948 9.53782 32.4444 5.2339 36.8642 3.13967ZM10.3127 55.4711C8.42791 57.3681 5.35839 57.3817 3.45696 55.5011C1.55552 53.6207 1.54195 50.5583 3.4269 48.6613C3.43684 48.6512 3.4469 48.6412 3.45696 48.6313L6.19985 45.8957L13.0547 52.7346L10.3127 55.4711ZM14.4285 51.3697L7.56791 44.5289L29.1717 22.984C29.1834 23.0034 29.196 23.0218 29.2076 23.0401C29.2629 23.1369 29.3269 23.2336 29.385 23.3245C29.5663 23.6234 29.7544 23.9185 29.9561 24.2038C30.0482 24.3354 30.15 24.4621 30.247 24.5907C30.4293 24.8345 30.6187 25.0728 30.8151 25.3056C30.9237 25.4342 31.0333 25.5609 31.1458 25.6857C31.3523 25.915 31.5675 26.1365 31.7876 26.3532C31.8972 26.4615 32.0038 26.5718 32.1173 26.6772C32.3955 26.9365 32.6854 27.1831 32.9811 27.422C33.0432 27.4714 33.1004 27.5256 33.1634 27.5739C33.5241 27.8554 33.8974 28.1185 34.2813 28.3671C34.3938 28.4397 34.5101 28.5035 34.6236 28.5731C34.9019 28.7434 35.183 28.9078 35.471 29.0568C35.6213 29.1361 35.7735 29.2096 35.9267 29.2841C36.0799 29.3586 36.2059 29.4302 36.3504 29.495L14.4285 51.3697ZM56.1586 17.0477C55.2383 24.4703 48.461 29.7432 41.021 28.8251C40.1353 28.7158 39.2626 28.5197 38.4156 28.2394L38.1247 28.1359C37.9928 28.0885 37.861 28.0392 37.7165 27.9821C37.2579 27.7995 36.81 27.5916 36.3746 27.3592C33.7037 25.9503 31.5708 23.7047 30.3042 20.9682C30.2159 20.7631 30.1267 20.5512 30.0424 20.3259C29.5436 19.051 29.2437 17.7071 29.1533 16.3415H47.5294C48.0649 16.3415 48.499 15.9084 48.499 15.3742V3.13774C53.8076 5.62445 56.902 11.2439 56.1586 17.0477Z" fill="#1451A1"/>
</svg>
